HIERARCHY
ROOT joint_Root
{
	OFFSET 0.0 0.0 0.0
	CHANNELS 6 Xposition Yposition Zposition Zrotation Xrotation Yrotation 
	JOINT Hips
	{
		OFFSET 4.5925 91.4895 -427.239
		CHANNELS 6 Xposition Yposition Zposition Zrotation Xrotation Yrotation 
		JOINT Spine
		{
			OFFSET 15.7357 0.0 0.0
			CHANNELS 6 Xposition Yposition Zposition Zrotation Xrotation Yrotation 
			JOINT Chest
			{
				OFFSET 8.98455 -0.406207 0.0
				CHANNELS 6 Xposition Yposition Zposition Zrotation Xrotation Yrotation 
				JOINT Neck
				{
					OFFSET 16.3773 0.0 0.0
					CHANNELS 6 Xposition Yposition Zposition Zrotation Xrotation Yrotation 
					JOINT Head
					{
						OFFSET 6.45672 0.0 0.0
						CHANNELS 6 Xposition Yposition Zposition Zrotation Xrotation Yrotation 
						End Site
						{
							OFFSET 0.0 0.0 0.0
						}
					}
				}
				JOINT Shoulder_L
				{
					OFFSET 12.9942 -0.242716 4.98039
					CHANNELS 6 Xposition Yposition Zposition Zrotation Xrotation Yrotation 
					JOINT UpperArm_L
					{
						OFFSET 5.34809 0.0 0.0
						CHANNELS 6 Xposition Yposition Zposition Zrotation Xrotation Yrotation 
						JOINT LowerArm_L
						{
							OFFSET 24.3286 1.87007e-05 0.0
							CHANNELS 6 Xposition Yposition Zposition Zrotation Xrotation Yrotation 
							JOINT Hand_L
							{
								OFFSET 22.2916 0.0 0.0
								CHANNELS 6 Xposition Yposition Zposition Zrotation Xrotation Yrotation 
								End Site
								{
									OFFSET 0.0 0.0 0.0
								}
							}
						}
					}
				}
				JOINT Shoulder_R
				{
					OFFSET 12.9945 -0.242716 -4.98039
					CHANNELS 6 Xposition Yposition Zposition Zrotation Xrotation Yrotation 
					JOINT UpperArm_R
					{
						OFFSET -5.34813 0.0 0.0
						CHANNELS 6 Xposition Yposition Zposition Zrotation Xrotation Yrotation 
						JOINT LowerArm_R
						{
							OFFSET -24.3289 0.000322201 0.0
							CHANNELS 6 Xposition Yposition Zposition Zrotation Xrotation Yrotation 
							JOINT Hand_R
							{
								OFFSET -22.2915 -0.000108084 0.0
								CHANNELS 6 Xposition Yposition Zposition Zrotation Xrotation Yrotation 
								End Site
								{
									OFFSET 0.0 0.0 0.0
								}
							}
						}
					}
				}
			}
		}
		JOINT UpperLeg_L
		{
			OFFSET -2.19248 -6.46944 0.0
			CHANNELS 6 Xposition Yposition Zposition Zrotation Xrotation Yrotation 
			JOINT LowerLeg_L
			{
				OFFSET 39.0811 0.0 -1.23785e-05
				CHANNELS 6 Xposition Yposition Zposition Zrotation Xrotation Yrotation 
				JOINT Foot_L
				{
					OFFSET 40.9854 0.0 -1.26872e-05
					CHANNELS 6 Xposition Yposition Zposition Zrotation Xrotation Yrotation 
					JOINT Toes_L
					{
						OFFSET 11.7543 0.0 0.0
						CHANNELS 6 Xposition Yposition Zposition Zrotation Xrotation Yrotation 
						End Site
						{
							OFFSET 0.0 0.0 0.0
						}
					}
				}
			}
		}
		JOINT UpperLeg_R
		{
			OFFSET -2.19251 6.46944 0.0
			CHANNELS 6 Xposition Yposition Zposition Zrotation Xrotation Yrotation 
			JOINT LowerLeg_R
			{
				OFFSET -39.0811 -0.00228153 -0.0401928
				CHANNELS 6 Xposition Yposition Zposition Zrotation Xrotation Yrotation 
				JOINT Foot_R
				{
					OFFSET -40.9854 0.0 0.0
					CHANNELS 6 Xposition Yposition Zposition Zrotation Xrotation Yrotation 
					JOINT Toes_R
					{
						OFFSET -11.7543 0.0 0.0
						CHANNELS 6 Xposition Yposition Zposition Zrotation Xrotation Yrotation 
						End Site
						{
							OFFSET 0.0 0.0 0.0
						}
					}
				}
			}
		}
	}
}
MOTION
Frames:	4
Frame Time:	0.0333333
0.000000 0.000000 0.000000 0.000000 0.000000 -0.000000 -2.233720 91.567800 -0.069584 87.038800 1.848090 2.886610 15.735700 0.000005 -0.000001 83.453100 87.084100 -87.143500 8.984550 -0.406207 -0.000000 -1.972880 -0.351437 -7.385410 16.377300 -0.000001 -0.000001 2.900000 -5.170140 6.706110 6.456720 -0.000001 -0.000000 -4.225430 -2.699840 1.458150 12.994200 -0.242716 4.980390 -90.631700 1.505540 -67.234500 5.348090 -0.000007 -0.000001 -58.310600 9.539410 -3.085300 24.328600 0.000019 0.000005 10.330100 18.954700 -29.298800 22.291600 -0.000001 0.000005 13.638600 5.164220 3.601170 12.994500 -0.242716 -4.980390 95.221900 -12.204200 -66.619900 -5.348130 -0.000001 -0.000004 -20.721000 -71.169200 -60.733200 -24.328900 0.000322 -0.000009 -5.777040 -6.793200 -40.532900 -22.291500 -0.000108 -0.000004 23.693100 5.590890 -10.812500 -2.192480 -6.469440 -0.000000 -172.351000 -12.857000 -6.459280 39.081100 -0.000007 -0.000012 -0.095257 0.179193 27.994800 40.985400 -0.000006 -0.000013 0.274006 10.664500 -68.633200 11.754300 -0.000000 0.000003 -0.000033 -0.000398 -16.593100 -2.192510 6.469440 -0.000001 -179.624000 25.159700 176.118000 -39.081100 -0.002282 -0.040193 0.019082 -0.033274 25.360000 -40.985400 0.000008 0.000006 7.731340 12.883400 -69.078900 -11.754300 -0.000006 -0.000006 -0.004218 -0.053688 -18.757100
0.000000 0.000000 0.000000 0.000000 0.000000 -0.000000 -2.152780 91.585200 -0.194286 87.092100 1.323810 2.844300 15.735700 0.000005 -0.000001 83.773900 87.066200 -87.228400 8.984550 -0.406207 -0.000000 -1.934100 -0.344040 -6.913670 16.377300 -0.000001 -0.000001 3.040220 -4.877170 6.472550 6.456720 -0.000001 -0.000000 -4.072540 -2.518070 1.149420 12.994200 -0.242716 4.980390 -90.844300 2.010880 -67.218500 5.348090 -0.000007 -0.000001 -58.246900 10.495100 -3.495880 24.328600 0.000019 0.000005 9.806990 18.895200 -28.091800 22.291600 -0.000001 0.000005 13.759400 5.164620 3.591340 12.994500 -0.242716 -4.980390 94.874300 -11.509500 -66.858300 -5.348130 -0.000001 -0.000004 -20.557300 -69.548400 -58.574700 -24.328900 0.000322 -0.000009 -6.865200 -6.584770 -46.389500 -22.291500 -0.000108 -0.000004 23.647600 5.589180 -10.716500 -2.192480 -6.469440 -0.000000 -172.487000 -13.132600 -6.450880 39.081100 -0.000007 -0.000012 -0.092814 0.175159 27.918500 40.985400 -0.000006 -0.000013 0.280968 10.417000 -68.560900 11.754300 -0.000000 0.000003 -0.000038 -0.000448 -16.595000 -2.192510 6.469440 -0.000001 -179.696000 24.990400 175.986000 -39.081100 -0.002282 -0.040193 0.019228 -0.033637 25.323300 -40.985400 0.000008 0.000006 7.833550 13.231000 -69.066700 -11.754300 -0.000006 -0.000006 -0.004104 -0.052521 -18.709600
0.000000 0.000000 0.000000 0.000000 0.000000 -0.000000 -2.052240 91.601500 -0.291677 87.153000 0.776181 2.784620 15.735700 0.000005 -0.000001 84.807200 87.063500 -88.031600 8.984550 -0.406207 -0.000000 -1.916160 -0.259229 -6.451930 16.377300 -0.000001 -0.000001 3.124420 -4.514010 6.164550 6.456720 -0.000001 -0.000000 -3.816400 -2.446960 0.973324 12.994200 -0.242716 4.980390 -91.066000 2.524150 -67.096400 5.348090 -0.000007 -0.000001 -58.312700 11.732800 -4.172420 24.328600 0.000019 0.000005 9.258460 19.122100 -26.455900 22.291600 -0.000001 0.000005 13.696000 5.161390 3.669560 12.994500 -0.242716 -4.980390 94.453400 -10.589300 -67.032300 -5.348130 -0.000001 -0.000004 -20.713400 -67.188000 -56.173500 -24.328900 0.000322 -0.000009 -7.585630 -5.719510 -53.189200 -22.291500 -0.000108 -0.000004 23.621900 5.580990 -10.265600 -2.192480 -6.469440 -0.000000 -172.641000 -13.389400 -6.438290 39.081100 -0.000007 -0.000012 -0.093104 0.176343 27.832900 40.985400 -0.000006 -0.000013 0.280479 10.120100 -68.501700 11.754300 -0.000000 0.000003 -0.000035 -0.000413 -16.593700 -2.192510 6.469440 -0.000001 -179.780000 24.774200 175.871000 -39.081100 -0.002282 -0.040193 0.019251 -0.033806 25.243900 -40.985400 0.000008 0.000006 7.910260 13.568800 -69.082500 -11.754300 -0.000006 -0.000006 -0.004029 -0.051739 -18.677700
0.000000 0.000000 0.000000 0.000000 0.000000 -0.000000 -1.940050 91.619100 -0.399619 87.181700 0.216949 2.765200 15.735700 0.000005 -0.000001 85.506800 87.061000 -88.472500 8.984550 -0.406207 -0.000000 -1.904580 -0.210292 -5.933580 16.377300 -0.000001 -0.000001 3.199300 -4.123410 5.813640 6.456720 -0.000001 -0.000000 -3.471220 -2.368710 0.828919 12.994200 -0.242716 4.980390 -91.305700 3.080000 -67.013900 5.348090 -0.000007 -0.000001 -58.657400 12.796500 -4.571770 24.328600 0.000019 0.000005 8.752430 19.324600 -24.949700 22.291600 -0.000001 0.000005 13.648400 5.153290 3.864540 12.994500 -0.242716 -4.980390 93.925200 -9.599070 -67.634300 -5.348130 -0.000001 -0.000004 -19.820000 -64.149900 -51.911000 -24.328900 0.000322 -0.000009 -7.754440 -4.291400 -61.218000 -22.291500 -0.000108 -0.000004 23.292100 5.566600 -9.512320 -2.192480 -6.469440 -0.000000 -172.759000 -13.606500 -6.374270 39.081100 -0.000007 -0.000012 -0.094406 0.179432 27.750700 40.985400 -0.000006 -0.000013 0.275307 9.783090 -68.459800 11.754300 -0.000000 0.000003 -0.000037 -0.000430 -16.594300 -2.192510 6.469440 -0.000001 -179.879000 24.653300 175.835000 -39.081100 -0.002282 -0.040193 0.018054 -0.031452 25.112700 -40.985400 0.000008 0.000006 7.893980 14.024400 -69.058000 -11.754300 -0.000006 -0.000006 -0.003784 -0.049173 -18.573200
